<svg width="1015" height="497" viewBox="0 0 1015 497" fill="none" xmlns="http://www.w3.org/2000/svg">
<path d="M65.34 18.99C65.61 18.72 65.67 18.42 65.67 18.21V11.1C65.67 10.83 65.67 10.68 65.34 10.32L63.66 8.64C63.39 8.37 63.3 8.31 62.88 8.31H57.27L56.85 7.89C56.79 7.83 56.73 7.77 56.73 7.68V5.28C56.73 5.19 56.76 5.13 56.85 5.04L57.33 4.56C57.39 4.5 57.45 4.47 57.54 4.47H61.26V5.97C61.26 6.21 61.44 6.39 61.68 6.39H65.22C65.46 6.39 65.67 6.21 65.67 5.97V2.88C65.67 2.58 65.55 2.28 65.34 2.07L63.66 0.389999C63.39 0.119999 63.18 0.0599996 62.88 0.0599996H55.11C54.87 0.0599996 54.66 0.0599996 54.33 0.389999L52.65 2.07C52.44 2.28 52.32 2.55 52.32 2.85V9.93C52.32 10.29 52.47 10.53 52.65 10.71L54.33 12.39C54.57 12.63 54.78 12.72 55.11 12.72H60.51C60.57 12.72 60.6 12.75 60.66 12.81L61.11 13.23C61.23 13.32 61.26 13.41 61.26 13.53V15.81C61.26 15.9 61.23 15.96 61.17 16.02L60.66 16.5C60.6 16.56 60.57 16.59 60.51 16.59H56.73V15.24C56.73 15 56.55 14.82 56.31 14.82H52.77C52.53 14.82 52.32 15 52.32 15.24V18.15C52.32 18.42 52.44 18.78 52.65 18.99L54.33 20.67C54.57 20.91 54.78 21 55.11 21H62.88C63.09 21 63.45 20.88 63.66 20.67L65.34 18.99ZM82.7754 21C83.0154 21 83.3154 20.79 83.1654 20.46L77.4054 8.31L82.9554 0.629999C83.1354 0.359999 82.8354 0.0599996 82.5054 0.0599996H77.9754C77.7354 0.0599996 77.5854 0.269999 77.4354 0.48L72.9954 6.99V0.48C72.9954 0.269999 72.8154 0.0599996 72.5754 0.0599996H69.0054C68.7654 0.0599996 68.5854 0.269999 68.5854 0.48V20.58C68.5854 20.82 68.7654 21 69.0054 21H72.5754C72.8154 21 72.9954 20.82 72.9954 20.58V14.43L74.5554 12.27L78.2454 20.58C78.3354 20.79 78.5454 21 78.7854 21H82.7754ZM88.8352 21C89.0752 21 89.2552 20.82 89.2552 20.58V0.48C89.2552 0.239999 89.0752 0.0599996 88.8352 0.0599996H85.2652C85.0252 0.0599996 84.8452 0.239999 84.8452 0.48V20.58C84.8452 20.82 85.0252 21 85.2652 21H88.8352ZM96.3345 21C96.5745 21 96.7845 20.79 96.7845 20.58V13.32H102.394C102.544 13.32 102.844 13.29 103.114 13.02L104.794 11.31C105.154 10.95 105.124 10.68 105.124 10.5V2.85C105.124 2.64 105.124 2.43 104.794 2.07L103.114 0.359999C102.874 0.119999 102.634 0.0599996 102.334 0.0599996H92.7945C92.5545 0.0599996 92.3745 0.239999 92.3745 0.48V20.58C92.3745 20.79 92.5545 21 92.7945 21H96.3345ZM100.114 8.82C100.054 8.88 99.9945 8.91 99.8745 8.91H96.7845V4.47H99.8745C99.9645 4.47 100.054 4.5 100.114 4.56L100.624 5.07C100.714 5.16 100.714 5.19 100.714 5.28V8.16C100.714 8.25 100.654 8.31 100.624 8.34L100.114 8.82ZM111.803 21C112.043 21 112.253 20.79 112.253 20.58V13.32H117.863C118.013 13.32 118.313 13.29 118.583 13.02L120.263 11.31C120.623 10.95 120.593 10.68 120.593 10.5V2.85C120.593 2.64 120.593 2.43 120.263 2.07L118.583 0.359999C118.343 0.119999 118.103 0.0599996 117.803 0.0599996H108.263C108.023 0.0599996 107.843 0.239999 107.843 0.48V20.58C107.843 20.79 108.023 21 108.263 21H111.803ZM115.583 8.82C115.523 8.88 115.463 8.91 115.343 8.91H112.253V4.47H115.343C115.433 4.47 115.523 4.5 115.583 4.56L116.093 5.07C116.183 5.16 116.183 5.19 116.183 5.28V8.16C116.183 8.25 116.123 8.31 116.093 8.34L115.583 8.82ZM127.302 21C127.542 21 127.722 20.82 127.722 20.58V0.48C127.722 0.239999 127.542 0.0599996 127.302 0.0599996H123.732C123.492 0.0599996 123.312 0.239999 123.312 0.48V20.58C123.312 20.82 123.492 21 123.732 21H127.302ZM144.191 21C144.431 21 144.611 20.79 144.611 20.58V0.48C144.611 0.239999 144.431 0.0599996 144.191 0.0599996H140.621C140.411 0.0599996 140.201 0.239999 140.201 0.48V12.33L140.051 12L136.091 0.48C136.001 0.209999 135.851 0.0599996 135.641 0.0599996H131.261C131.021 0.0599996 130.841 0.239999 130.841 0.48V20.58C130.841 20.79 131.021 21 131.261 21H134.831C135.041 21 135.251 20.79 135.251 20.58V10.53L138.911 20.58C139.001 20.79 139.211 21 139.451 21H144.191ZM160.616 18.99C160.796 18.81 160.946 18.63 160.946 18.39V9.33C160.946 9.09 160.736 8.91 160.496 8.91H154.556C154.316 8.91 154.136 9.09 154.136 9.33V12.9C154.136 13.11 154.316 13.32 154.556 13.32H156.536V15.96C156.536 16.02 156.506 16.08 156.446 16.17L156.026 16.59H152.516L152.126 16.17C152.036 16.08 152.006 16.02 152.006 15.93V5.34C152.006 5.25 152.036 5.19 152.126 5.07L152.606 4.56C152.696 4.47 152.756 4.47 152.816 4.47H155.726C155.786 4.47 155.876 4.47 155.936 4.56L156.446 5.07C156.536 5.16 156.536 5.19 156.536 5.28V6.06C156.536 6.27 156.716 6.48 156.956 6.48H160.496C160.736 6.48 160.946 6.27 160.946 6.06V2.85C160.946 2.61 160.946 2.43 160.616 2.07L158.936 0.389999C158.576 0.0599996 158.396 0.0599996 158.156 0.0599996H150.386C149.936 0.0599996 149.786 0.209999 149.606 0.389999L147.926 2.07C147.686 2.31 147.596 2.49 147.596 2.85V18.21C147.596 18.48 147.566 18.63 147.926 18.99L149.606 20.67C149.786 20.85 150.056 21 150.386 21H158.156C158.186 21 158.576 21.03 158.936 20.67L160.616 18.99ZM56.52 71C56.76 71 56.97 70.79 56.97 70.58V63.32H62.58C62.73 63.32 63.03 63.29 63.3 63.02L64.98 61.31C65.34 60.95 65.31 60.68 65.31 60.5V52.85C65.31 52.64 65.31 52.43 64.98 52.07L63.3 50.36C63.06 50.12 62.82 50.06 62.52 50.06H52.98C52.74 50.06 52.56 50.24 52.56 50.48V70.58C52.56 70.79 52.74 71 52.98 71H56.52ZM60.3 58.82C60.24 58.88 60.18 58.91 60.06 58.91H56.97V54.47H60.06C60.15 54.47 60.24 54.5 60.3 54.56L60.81 55.07C60.9 55.16 60.9 55.19 60.9 55.28V58.16C60.9 58.25 60.84 58.31 60.81 58.34L60.3 58.82ZM79.3688 71C79.5788 71 79.7888 70.82 79.7888 70.58V67.01C79.7888 66.77 79.5788 66.59 79.3688 66.59H72.4388V62.72H77.7488C77.9888 62.72 78.1688 62.54 78.1688 62.3V58.73C78.1688 58.49 77.9888 58.31 77.7488 58.31H72.4388V54.47H79.3688C79.5788 54.47 79.7888 54.29 79.7888 54.05V50.48C79.7888 50.24 79.5788 50.06 79.3688 50.06H68.4487C68.2088 50.06 68.0288 50.24 68.0288 50.48V70.58C68.0288 70.82 68.2088 71 68.4487 71H79.3688ZM95.472 71C95.772 71 95.862 70.79 95.772 70.58L92.712 63.02L94.512 61.25C94.752 61.01 94.812 60.86 94.812 60.47V52.91C94.812 52.67 94.872 52.43 94.512 52.07L92.802 50.36C92.592 50.15 92.292 50.06 92.022 50.06H82.482C82.272 50.06 82.062 50.24 82.062 50.48V70.58C82.062 70.79 82.272 71 82.482 71H86.052C86.292 71 86.472 70.79 86.472 70.58V63.26H87.852L90.792 70.58C90.882 70.79 91.092 71 91.332 71H95.472ZM89.832 58.79C89.742 58.88 89.682 58.88 89.622 58.88H86.472V54.47H89.472C89.622 54.47 89.742 54.47 89.862 54.59L90.312 55.04C90.402 55.13 90.402 55.19 90.402 55.34V58.07C90.402 58.16 90.372 58.25 90.312 58.31L89.832 58.79ZM122.097 71C122.427 71 122.547 70.76 122.547 70.58L124.167 50.48C124.197 50.27 123.957 50.06 123.747 50.06H120.177C119.937 50.06 119.757 50.27 119.757 50.48L119.007 60.71L117.327 55.97C117.237 55.73 116.997 55.55 116.757 55.55H114.357C114.117 55.55 113.907 55.76 113.817 55.97L112.107 60.71L111.387 50.48C111.387 50.27 111.177 50.06 110.937 50.06H107.397C107.157 50.06 106.947 50.27 106.977 50.48L108.567 70.55C108.567 70.73 108.747 71 108.957 71H112.707C112.947 71 113.067 70.85 113.157 70.58L115.497 63.02L115.677 61.52L115.887 63.02L117.987 70.58C118.047 70.82 118.197 71 118.407 71H122.097ZM137.933 71C138.143 71 138.353 70.82 138.353 70.58V67.01C138.353 66.77 138.143 66.59 137.933 66.59H131.003V62.72H136.313C136.553 62.72 136.733 62.54 136.733 62.3V58.73C136.733 58.49 136.553 58.31 136.313 58.31H131.003V54.47H137.933C138.143 54.47 138.353 54.29 138.353 54.05V50.48C138.353 50.24 138.143 50.06 137.933 50.06H127.013C126.773 50.06 126.593 50.24 126.593 50.48V70.58C126.593 70.82 126.773 71 127.013 71H137.933ZM151.966 71C152.176 71 152.386 70.82 152.386 70.58V67.01C152.386 66.77 152.176 66.59 151.966 66.59H145.036V62.72H150.346C150.586 62.72 150.766 62.54 150.766 62.3V58.73C150.766 58.49 150.586 58.31 150.346 58.31H145.036V54.47H151.966C152.176 54.47 152.386 54.29 152.386 54.05V50.48C152.386 50.24 152.176 50.06 151.966 50.06H141.046C140.806 50.06 140.626 50.24 140.626 50.48V70.58C140.626 70.82 140.806 71 141.046 71H151.966ZM168.85 71C169.09 71 169.39 70.79 169.24 70.46L163.48 58.31L169.03 50.63C169.21 50.36 168.91 50.06 168.58 50.06H164.05C163.81 50.06 163.66 50.27 163.51 50.48L159.07 56.99V50.48C159.07 50.27 158.89 50.06 158.65 50.06H155.08C154.84 50.06 154.66 50.27 154.66 50.48V70.58C154.66 70.82 154.84 71 155.08 71H158.65C158.89 71 159.07 70.82 159.07 70.58V64.43L160.63 62.27L164.32 70.58C164.41 70.79 164.62 71 164.86 71H168.85ZM184.841 71C185.081 71 185.261 70.82 185.261 70.58V62.75H190.631C190.841 62.75 190.991 62.51 190.991 62.33V58.76C190.991 58.52 190.811 58.34 190.571 58.34H185.261V54.47H192.281C192.521 54.47 192.611 54.2 192.611 54.05V50.48C192.611 50.24 192.401 50.06 192.191 50.06H181.271C181.031 50.06 180.851 50.24 180.851 50.48V70.58C180.851 70.82 181.031 71 181.271 71H184.841ZM207.491 68.99C207.731 68.75 207.791 68.39 207.791 68.21V52.85C207.791 52.46 207.641 52.22 207.491 52.07L205.781 50.39C205.421 50.03 205.331 50.06 205.001 50.06H197.261C197.021 50.06 196.751 50.12 196.481 50.39L194.801 52.07C194.591 52.28 194.471 52.61 194.471 52.85V68.21C194.471 68.51 194.561 68.75 194.801 68.99L196.481 70.67C196.751 70.94 196.961 71 197.261 71H205.091C205.331 71 205.541 70.91 205.781 70.67L207.491 68.99ZM202.871 66.59H199.391L198.971 66.17C198.911 66.08 198.881 66.02 198.881 65.96V55.28C198.881 55.22 198.881 55.13 198.971 55.04L199.481 54.56C199.571 54.5 199.601 54.47 199.691 54.47H202.601C202.661 54.47 202.721 54.47 202.811 54.56L203.291 55.04C203.381 55.13 203.381 55.22 203.381 55.28V65.96C203.381 66.02 203.381 66.08 203.291 66.17L202.871 66.59ZM224.202 71C224.502 71 224.592 70.79 224.502 70.58L221.442 63.02L223.242 61.25C223.482 61.01 223.542 60.86 223.542 60.47V52.91C223.542 52.67 223.602 52.43 223.242 52.07L221.532 50.36C221.322 50.15 221.022 50.06 220.752 50.06H211.212C211.002 50.06 210.792 50.24 210.792 50.48V70.58C210.792 70.79 211.002 71 211.212 71H214.782C215.022 71 215.202 70.79 215.202 70.58V63.26H216.582L219.522 70.58C219.612 70.79 219.822 71 220.062 71H224.202ZM218.562 58.79C218.472 58.88 218.412 58.88 218.352 58.88H215.202V54.47H218.202C218.352 54.47 218.472 54.47 218.592 54.59L219.042 55.04C219.132 55.13 219.132 55.19 219.132 55.34V58.07C219.132 58.16 219.102 58.25 219.042 58.31L218.562 58.79ZM250.888 71C251.218 71 251.398 70.79 251.338 70.58L245.398 50.51C245.308 50.21 245.188 50.06 244.978 50.06H241.408C241.198 50.06 241.078 50.21 240.988 50.48L235.048 70.58C234.988 70.79 235.108 71 235.498 71H238.918C239.158 71 239.398 70.79 239.458 70.58L240.178 68.15H246.208L246.928 70.58C246.988 70.79 247.228 71 247.468 71H250.888ZM245.008 64.1H241.378L243.208 57.95L245.008 64.1ZM271.189 71C271.399 71 271.609 70.82 271.609 70.58V61.37L277.189 50.63C277.339 50.36 277.159 50.06 276.799 50.06H272.929C272.689 50.06 272.479 50.27 272.389 50.48L269.389 56.42L266.389 50.48C266.299 50.27 266.089 50.06 265.849 50.06H261.979C261.619 50.06 261.439 50.36 261.589 50.63L267.169 61.37V70.58C267.169 70.82 267.379 71 267.589 71H271.189ZM290.218 71C290.428 71 290.638 70.82 290.638 70.58V67.01C290.638 66.77 290.428 66.59 290.218 66.59H283.288V62.72H288.598C288.838 62.72 289.018 62.54 289.018 62.3V58.73C289.018 58.49 288.838 58.31 288.598 58.31H283.288V54.47H290.218C290.428 54.47 290.638 54.29 290.638 54.05V50.48C290.638 50.24 290.428 50.06 290.218 50.06H279.298C279.058 50.06 278.878 50.24 278.878 50.48V70.58C278.878 70.82 279.058 71 279.298 71H290.218ZM307.402 71C307.732 71 307.912 70.79 307.852 70.58L301.912 50.51C301.822 50.21 301.702 50.06 301.492 50.06H297.922C297.712 50.06 297.592 50.21 297.502 50.48L291.562 70.58C291.502 70.79 291.622 71 292.012 71H295.432C295.672 71 295.912 70.79 295.972 70.58L296.692 68.15H302.722L303.442 70.58C303.502 70.79 303.742 71 303.982 71H307.402ZM301.522 64.1H297.892L299.722 57.95L301.522 64.1ZM323.021 71C323.321 71 323.411 70.79 323.321 70.58L320.261 63.02L322.061 61.25C322.301 61.01 322.361 60.86 322.361 60.47V52.91C322.361 52.67 322.421 52.43 322.061 52.07L320.351 50.36C320.141 50.15 319.841 50.06 319.571 50.06H310.031C309.821 50.06 309.611 50.24 309.611 50.48V70.58C309.611 70.79 309.821 71 310.031 71H313.601C313.841 71 314.021 70.79 314.021 70.58V63.26H315.401L318.341 70.58C318.431 70.79 318.641 71 318.881 71H323.021ZM317.381 58.79C317.291 58.88 317.231 58.88 317.171 58.88H314.021V54.47H317.021C317.171 54.47 317.291 54.47 317.411 54.59L317.861 55.04C317.951 55.13 317.951 55.19 317.951 55.34V58.07C317.951 58.16 317.921 58.25 317.861 58.31L317.381 58.79ZM347.996 68.99C348.266 68.72 348.326 68.42 348.326 68.21V61.1C348.326 60.83 348.326 60.68 347.996 60.32L346.316 58.64C346.046 58.37 345.956 58.31 345.536 58.31H339.926L339.506 57.89C339.446 57.83 339.386 57.77 339.386 57.68V55.28C339.386 55.19 339.416 55.13 339.506 55.04L339.986 54.56C340.046 54.5 340.106 54.47 340.196 54.47H343.916V55.97C343.916 56.21 344.096 56.39 344.336 56.39H347.876C348.116 56.39 348.326 56.21 348.326 55.97V52.88C348.326 52.58 348.206 52.28 347.996 52.07L346.316 50.39C346.046 50.12 345.836 50.06 345.536 50.06H337.766C337.526 50.06 337.316 50.06 336.986 50.39L335.306 52.07C335.096 52.28 334.976 52.55 334.976 52.85V59.93C334.976 60.29 335.126 60.53 335.306 60.71L336.986 62.39C337.226 62.63 337.436 62.72 337.766 62.72H343.166C343.226 62.72 343.256 62.75 343.316 62.81L343.766 63.23C343.886 63.32 343.916 63.41 343.916 63.53V65.81C343.916 65.9 343.886 65.96 343.826 66.02L343.316 66.5C343.256 66.56 343.226 66.59 343.166 66.59H339.386V65.24C339.386 65 339.206 64.82 338.966 64.82H335.426C335.186 64.82 334.976 65 334.976 65.24V68.15C334.976 68.42 335.096 68.78 335.306 68.99L336.986 70.67C337.226 70.91 337.436 71 337.766 71H345.536C345.746 71 346.106 70.88 346.316 70.67L347.996 68.99ZM365.732 71C366.062 71 366.242 70.79 366.182 70.58L360.242 50.51C360.152 50.21 360.032 50.06 359.822 50.06H356.252C356.042 50.06 355.922 50.21 355.832 50.48L349.892 70.58C349.832 70.79 349.952 71 350.342 71H353.762C354.002 71 354.242 70.79 354.302 70.58L355.022 68.15H361.052L361.772 70.58C361.832 70.79 362.072 71 362.312 71H365.732ZM359.852 64.1H356.222L358.052 57.95L359.852 64.1ZM374.554 71C374.794 71 375.064 70.79 375.124 70.55L380.344 50.6C380.404 50.39 380.224 50.06 379.984 50.06H376.234C375.994 50.06 375.844 50.21 375.784 50.48L372.604 62L372.304 63.8L372.064 62L369.364 50.48C369.304 50.21 369.154 50.06 368.914 50.06H365.164C364.924 50.06 364.744 50.36 364.804 50.6L370.024 70.55C370.084 70.79 370.324 71 370.564 71H374.554ZM393.49 71C393.7 71 393.91 70.82 393.91 70.58V67.01C393.91 66.77 393.7 66.59 393.49 66.59H386.56V62.72H391.87C392.11 62.72 392.29 62.54 392.29 62.3V58.73C392.29 58.49 392.11 58.31 391.87 58.31H386.56V54.47H393.49C393.7 54.47 393.91 54.29 393.91 54.05V50.48C393.91 50.24 393.7 50.06 393.49 50.06H382.57C382.33 50.06 382.15 50.24 382.15 50.48V70.58C382.15 70.82 382.33 71 382.57 71H393.49ZM408.963 68.99C409.233 68.72 409.293 68.42 409.293 68.21V61.1C409.293 60.83 409.293 60.68 408.963 60.32L407.283 58.64C407.013 58.37 406.923 58.31 406.503 58.31H400.893L400.473 57.89C400.413 57.83 400.353 57.77 400.353 57.68V55.28C400.353 55.19 400.383 55.13 400.473 55.04L400.953 54.56C401.013 54.5 401.073 54.47 401.163 54.47H404.883V55.97C404.883 56.21 405.063 56.39 405.303 56.39H408.843C409.083 56.39 409.293 56.21 409.293 55.97V52.88C409.293 52.58 409.173 52.28 408.963 52.07L407.283 50.39C407.013 50.12 406.803 50.06 406.503 50.06H398.733C398.493 50.06 398.283 50.06 397.953 50.39L396.273 52.07C396.063 52.28 395.943 52.55 395.943 52.85V59.93C395.943 60.29 396.093 60.53 396.273 60.71L397.953 62.39C398.193 62.63 398.403 62.72 398.733 62.72H404.133C404.193 62.72 404.223 62.75 404.283 62.81L404.733 63.23C404.853 63.32 404.883 63.41 404.883 63.53V65.81C404.883 65.9 404.853 65.96 404.793 66.02L404.283 66.5C404.223 66.56 404.193 66.59 404.133 66.59H400.353V65.24C400.353 65 400.173 64.82 399.933 64.82H396.393C396.153 64.82 395.943 65 395.943 65.24V68.15C395.943 68.42 396.063 68.78 396.273 68.99L397.953 70.67C398.193 70.91 398.403 71 398.733 71H406.503C406.713 71 407.073 70.88 407.283 70.67L408.963 68.99Z" fill="#553E17"/>
<path d="M65.46 43.99C65.7 43.75 65.76 43.39 65.76 43.21V27.85C65.76 27.46 65.61 27.22 65.46 27.07L63.75 25.39C63.39 25.03 63.3 25.06 62.97 25.06H55.23C54.99 25.06 54.72 25.12 54.45 25.39L52.77 27.07C52.56 27.28 52.44 27.61 52.44 27.85V43.21C52.44 43.51 52.53 43.75 52.77 43.99L54.45 45.67C54.72 45.94 54.93 46 55.23 46H63.06C63.3 46 63.51 45.91 63.75 45.67L65.46 43.99ZM60.84 41.59H57.36L56.94 41.17C56.88 41.08 56.85 41.02 56.85 40.96V30.28C56.85 30.22 56.85 30.13 56.94 30.04L57.45 29.56C57.54 29.5 57.57 29.47 57.66 29.47H60.57C60.63 29.47 60.69 29.47 60.78 29.56L61.26 30.04C61.35 30.13 61.35 30.22 61.35 30.28V40.96C61.35 41.02 61.35 41.08 61.26 41.17L60.84 41.59ZM82.1112 46C82.3512 46 82.5312 45.79 82.5312 45.58V25.48C82.5312 25.24 82.3512 25.06 82.1112 25.06H78.5412C78.3312 25.06 78.1212 25.24 78.1212 25.48V37.33L77.9712 37L74.0112 25.48C73.9212 25.21 73.7712 25.06 73.5612 25.06H69.1812C68.9412 25.06 68.7612 25.24 68.7612 25.48V45.58C68.7612 45.79 68.9412 46 69.1812 46H72.7512C72.9612 46 73.1712 45.79 73.1712 45.58V35.53L76.8312 45.58C76.9212 45.79 77.1312 46 77.3712 46H82.1112ZM97.0055 46C97.2155 46 97.4255 45.82 97.4255 45.58V42.01C97.4255 41.77 97.2155 41.59 97.0055 41.59H90.0755V37.72H95.3855C95.6255 37.72 95.8055 37.54 95.8055 37.3V33.73C95.8055 33.49 95.6255 33.31 95.3855 33.31H90.0755V29.47H97.0055C97.2155 29.47 97.4255 29.29 97.4255 29.05V25.48C97.4255 25.24 97.2155 25.06 97.0055 25.06H86.0855C85.8455 25.06 85.6655 25.24 85.6655 25.48V45.58C85.6655 45.82 85.8455 46 86.0855 46H97.0055ZM122.53 46C122.77 46 122.95 45.82 122.95 45.58V25.48C122.95 25.24 122.77 25.06 122.53 25.06H118.96C118.75 25.06 118.54 25.24 118.54 25.48V33.31H114.04V25.48C114.04 25.24 113.83 25.06 113.62 25.06H110.05C109.81 25.06 109.63 25.24 109.63 25.48V45.58C109.63 45.82 109.81 46 110.05 46H113.62C113.83 46 114.04 45.82 114.04 45.58V37.72H118.54V45.58C118.54 45.82 118.75 46 118.96 46H122.53ZM140.556 46C140.886 46 141.066 45.79 141.006 45.58L135.066 25.51C134.976 25.21 134.856 25.06 134.646 25.06H131.076C130.866 25.06 130.746 25.21 130.656 25.48L124.716 45.58C124.656 45.79 124.776 46 125.166 46H128.586C128.826 46 129.066 45.79 129.126 45.58L129.846 43.15H135.876L136.596 45.58C136.656 45.79 136.896 46 137.136 46H140.556ZM134.676 39.1H131.046L132.876 32.95L134.676 39.1ZM159.055 46C159.295 46 159.475 45.82 159.475 45.58L158.695 25.48C158.695 25.27 158.605 25.06 158.365 25.06H154.555C154.315 25.06 154.165 25.18 154.105 25.45L150.955 37.06L150.715 39.58L150.385 37.06L147.685 25.45C147.625 25.21 147.475 25.06 147.235 25.06H143.425C143.215 25.06 143.095 25.27 143.095 25.48L142.285 45.58C142.285 45.82 142.495 46 142.705 46H146.275C146.515 46 146.695 45.82 146.695 45.58L146.845 37.96L149.125 45.58C149.185 45.82 149.455 46 149.695 46H152.095C152.335 46 152.575 45.79 152.635 45.58L154.945 37.96L155.065 45.58C155.065 45.82 155.275 46 155.515 46H159.055ZM174.521 43.99C174.701 43.81 174.851 43.54 174.851 43.21V37.54C174.851 37.39 174.731 37.15 174.521 36.94L173.351 35.77L174.521 34.57C174.731 34.36 174.851 34.09 174.851 33.79V27.85C174.851 27.61 174.851 27.43 174.521 27.07L172.841 25.39C172.571 25.12 172.331 25.06 172.061 25.06H162.521C162.281 25.06 162.101 25.24 162.101 25.48V45.58C162.101 45.82 162.281 46 162.521 46H172.061C172.451 46 172.631 45.88 172.841 45.67L174.521 43.99ZM169.931 33.31H166.511V29.47H169.661C169.751 29.47 169.811 29.53 169.841 29.56L170.351 30.07C170.441 30.16 170.441 30.19 170.441 30.28V32.68C170.441 32.77 170.411 32.83 170.351 32.89L169.931 33.31ZM169.931 41.59H166.511V37.72H169.661C169.751 37.72 169.781 37.75 169.841 37.81L170.351 38.32C170.441 38.41 170.441 38.47 170.441 38.53V40.96C170.441 41.02 170.411 41.08 170.351 41.17L169.931 41.59ZM190.705 43.99C190.915 43.78 191.005 43.48 191.005 43.21V25.48C191.005 25.24 190.825 25.06 190.585 25.06H187.045C186.805 25.06 186.625 25.24 186.625 25.48V40.93C186.625 41.02 186.595 41.08 186.505 41.17L186.085 41.59H182.605L182.185 41.17C182.125 41.08 182.095 41.08 182.095 40.96V25.48C182.095 25.24 181.915 25.06 181.675 25.06H178.105C177.895 25.06 177.685 25.24 177.685 25.48V43.21C177.685 43.45 177.715 43.69 178.015 43.99L179.695 45.7C179.935 45.94 180.175 46 180.475 46H188.245C188.605 46 188.785 45.91 189.025 45.67L190.705 43.99ZM207.445 46C207.745 46 207.835 45.79 207.745 45.58L204.685 38.02L206.485 36.25C206.725 36.01 206.785 35.86 206.785 35.47V27.91C206.785 27.67 206.845 27.43 206.485 27.07L204.775 25.36C204.565 25.15 204.265 25.06 203.995 25.06H194.455C194.245 25.06 194.035 25.24 194.035 25.48V45.58C194.035 45.79 194.245 46 194.455 46H198.025C198.265 46 198.445 45.79 198.445 45.58V38.26H199.825L202.765 45.58C202.855 45.79 203.065 46 203.305 46H207.445ZM201.805 33.79C201.715 33.88 201.655 33.88 201.595 33.88H198.445V29.47H201.445C201.595 29.47 201.715 29.47 201.835 29.59L202.285 30.04C202.375 30.13 202.375 30.19 202.375 30.34V33.07C202.375 33.16 202.345 33.25 202.285 33.31L201.805 33.79ZM222.578 43.99C222.758 43.81 222.908 43.63 222.908 43.39V34.33C222.908 34.09 222.698 33.91 222.458 33.91H216.518C216.278 33.91 216.098 34.09 216.098 34.33V37.9C216.098 38.11 216.278 38.32 216.518 38.32H218.498V40.96C218.498 41.02 218.468 41.08 218.408 41.17L217.988 41.59H214.478L214.088 41.17C213.998 41.08 213.968 41.02 213.968 40.93V30.34C213.968 30.25 213.998 30.19 214.088 30.07L214.568 29.56C214.658 29.47 214.718 29.47 214.778 29.47H217.688C217.748 29.47 217.838 29.47 217.898 29.56L218.408 30.07C218.498 30.16 218.498 30.19 218.498 30.28V31.06C218.498 31.27 218.678 31.48 218.918 31.48H222.458C222.698 31.48 222.908 31.27 222.908 31.06V27.85C222.908 27.61 222.908 27.43 222.578 27.07L220.898 25.39C220.538 25.06 220.358 25.06 220.118 25.06H212.348C211.898 25.06 211.748 25.21 211.568 25.39L209.888 27.07C209.648 27.31 209.558 27.49 209.558 27.85V43.21C209.558 43.48 209.528 43.63 209.888 43.99L211.568 45.67C211.748 45.85 212.018 46 212.348 46H220.118C220.148 46 220.538 46.03 220.898 45.67L222.578 43.99ZM237.22 46C237.43 46 237.64 45.82 237.64 45.58V42.01C237.64 41.77 237.43 41.59 237.22 41.59H230.29V37.72H235.6C235.84 37.72 236.02 37.54 236.02 37.3V33.73C236.02 33.49 235.84 33.31 235.6 33.31H230.29V29.47H237.22C237.43 29.47 237.64 29.29 237.64 29.05V25.48C237.64 25.24 237.43 25.06 237.22 25.06H226.3C226.06 25.06 225.88 25.24 225.88 25.48V45.58C225.88 45.82 226.06 46 226.3 46H237.22ZM253.324 46C253.624 46 253.714 45.79 253.624 45.58L250.564 38.02L252.364 36.25C252.604 36.01 252.664 35.86 252.664 35.47V27.91C252.664 27.67 252.724 27.43 252.364 27.07L250.654 25.36C250.444 25.15 250.144 25.06 249.874 25.06H240.334C240.124 25.06 239.914 25.24 239.914 25.48V45.58C239.914 45.79 240.124 46 240.334 46H243.904C244.144 46 244.324 45.79 244.324 45.58V38.26H245.704L248.644 45.58C248.734 45.79 248.944 46 249.184 46H253.324ZM247.684 33.79C247.594 33.88 247.534 33.88 247.474 33.88H244.324V29.47H247.324C247.474 29.47 247.594 29.47 247.714 29.59L248.164 30.04C248.254 30.13 248.254 30.19 248.254 30.34V33.07C248.254 33.16 248.224 33.25 248.164 33.31L247.684 33.79Z" fill="#AE5738"/>
<path d="M474.835 177.655C475.045 177.445 475.22 177.235 475.22 176.955V166.385C475.22 166.105 474.975 165.895 474.695 165.895H467.765C467.485 165.895 467.275 166.105 467.275 166.385V170.55C467.275 170.795 467.485 171.04 467.765 171.04H470.075V174.12C470.075 174.19 470.04 174.26 469.97 174.365L469.48 174.855H465.385L464.93 174.365C464.825 174.26 464.79 174.19 464.79 174.085V161.73C464.79 161.625 464.825 161.555 464.93 161.415L465.49 160.82C465.595 160.715 465.665 160.715 465.735 160.715H469.13C469.2 160.715 469.305 160.715 469.375 160.82L469.97 161.415C470.075 161.52 470.075 161.555 470.075 161.66V162.57C470.075 162.815 470.285 163.06 470.565 163.06H474.695C474.975 163.06 475.22 162.815 475.22 162.57V158.825C475.22 158.545 475.22 158.335 474.835 157.915L472.875 155.955C472.455 155.57 472.245 155.57 471.965 155.57H462.9C462.375 155.57 462.2 155.745 461.99 155.955L460.03 157.915C459.75 158.195 459.645 158.405 459.645 158.825V176.745C459.645 177.06 459.61 177.235 460.03 177.655L461.99 179.615C462.2 179.825 462.515 180 462.9 180H471.965C472 180 472.455 180.035 472.875 179.615L474.835 177.655ZM495.592 180C495.977 180 496.187 179.755 496.117 179.51L489.187 156.095C489.082 155.745 488.942 155.57 488.697 155.57H484.532C484.287 155.57 484.147 155.745 484.042 156.06L477.112 179.51C477.042 179.755 477.182 180 477.637 180H481.627C481.907 180 482.187 179.755 482.257 179.51L483.097 176.675H490.132L490.972 179.51C491.042 179.755 491.322 180 491.602 180H495.592ZM488.732 171.95H484.497L486.632 164.775L488.732 171.95ZM512.695 180C512.975 180 513.22 179.79 513.22 179.51V175.345C513.22 175.1 512.975 174.855 512.695 174.855H503.315V155.955C503.315 155.745 503.07 155.57 502.825 155.57H498.695C498.45 155.57 498.17 155.745 498.17 155.955V179.51C498.17 179.79 498.415 180 498.695 180H512.695ZM530.195 180C530.475 180 530.72 179.79 530.72 179.51V175.345C530.72 175.1 530.475 174.855 530.195 174.855H520.815V155.955C520.815 155.745 520.57 155.57 520.325 155.57H516.195C515.95 155.57 515.67 155.745 515.67 155.955V179.51C515.67 179.79 515.915 180 516.195 180H530.195ZM548.22 177.655C548.5 177.375 548.57 176.955 548.57 176.745V158.825C548.57 158.37 548.395 158.09 548.22 157.915L546.225 155.955C545.805 155.535 545.7 155.57 545.315 155.57H536.285C536.005 155.57 535.69 155.64 535.375 155.955L533.415 157.915C533.17 158.16 533.03 158.545 533.03 158.825V176.745C533.03 177.095 533.135 177.375 533.415 177.655L535.375 179.615C535.69 179.93 535.935 180 536.285 180H545.42C545.7 180 545.945 179.895 546.225 179.615L548.22 177.655ZM542.83 174.855H538.77L538.28 174.365C538.21 174.26 538.175 174.19 538.175 174.12V161.66C538.175 161.59 538.175 161.485 538.28 161.38L538.875 160.82C538.98 160.75 539.015 160.715 539.12 160.715H542.515C542.585 160.715 542.655 160.715 542.76 160.82L543.32 161.38C543.425 161.485 543.425 161.59 543.425 161.66V174.12C543.425 174.19 543.425 174.26 543.32 174.365L542.83 174.855ZM567.646 180C567.926 180 568.136 179.755 568.136 179.51V156.06C568.136 155.78 567.926 155.57 567.646 155.57H563.481C563.236 155.57 562.991 155.78 562.991 156.06V169.885L562.816 169.5L558.196 156.06C558.091 155.745 557.916 155.57 557.671 155.57H552.561C552.281 155.57 552.071 155.78 552.071 156.06V179.51C552.071 179.755 552.281 180 552.561 180H556.726C556.971 180 557.216 179.755 557.216 179.51V167.785L561.486 179.51C561.591 179.755 561.836 180 562.116 180H567.646ZM586.703 177.655C587.018 177.34 587.088 176.99 587.088 176.745V168.45C587.088 168.135 587.088 167.96 586.703 167.54L584.743 165.58C584.428 165.265 584.323 165.195 583.833 165.195H577.288L576.798 164.705C576.728 164.635 576.658 164.565 576.658 164.46V161.66C576.658 161.555 576.693 161.485 576.798 161.38L577.358 160.82C577.428 160.75 577.498 160.715 577.603 160.715H581.943V162.465C581.943 162.745 582.153 162.955 582.433 162.955H586.563C586.843 162.955 587.088 162.745 587.088 162.465V158.86C587.088 158.51 586.948 158.16 586.703 157.915L584.743 155.955C584.428 155.64 584.183 155.57 583.833 155.57H574.768C574.488 155.57 574.243 155.57 573.858 155.955L571.898 157.915C571.653 158.16 571.513 158.475 571.513 158.825V167.085C571.513 167.505 571.688 167.785 571.898 167.995L573.858 169.955C574.138 170.235 574.383 170.34 574.768 170.34H581.068C581.138 170.34 581.173 170.375 581.243 170.445L581.768 170.935C581.908 171.04 581.943 171.145 581.943 171.285V173.945C581.943 174.05 581.908 174.12 581.838 174.19L581.243 174.75C581.173 174.82 581.138 174.855 581.068 174.855H576.658V173.28C576.658 173 576.448 172.79 576.168 172.79H572.038C571.758 172.79 571.513 173 571.513 173.28V176.675C571.513 176.99 571.653 177.41 571.898 177.655L573.858 179.615C574.138 179.895 574.383 180 574.768 180H583.833C584.078 180 584.498 179.86 584.743 179.615L586.703 177.655Z" fill="#553E17"/>
<path d="M655.22 450C655.465 450 655.71 449.825 655.71 449.58V430.715H660.155C660.435 430.715 660.68 430.505 660.68 430.225V426.095C660.68 425.815 660.435 425.57 660.155 425.57H646.155C645.875 425.57 645.63 425.815 645.63 426.095V430.225C645.63 430.505 645.875 430.715 646.155 430.715H650.6V449.58C650.6 449.825 650.845 450 651.09 450H655.22ZM667.779 450C668.059 450 668.269 449.79 668.269 449.51V426.06C668.269 425.78 668.059 425.57 667.779 425.57H663.614C663.334 425.57 663.124 425.78 663.124 426.06V449.51C663.124 449.79 663.334 450 663.614 450H667.779ZM690.913 450C691.193 450 691.403 449.79 691.403 449.51L690.493 426.06C690.493 425.815 690.388 425.57 690.108 425.57H685.663C685.383 425.57 685.208 425.71 685.138 426.025L681.463 439.57L681.183 442.51L680.798 439.57L677.648 426.025C677.578 425.745 677.403 425.57 677.123 425.57H672.678C672.433 425.57 672.293 425.815 672.293 426.06L671.348 449.51C671.348 449.79 671.593 450 671.838 450H676.003C676.283 450 676.493 449.79 676.493 449.51L676.668 440.62L679.328 449.51C679.398 449.79 679.713 450 679.993 450H682.793C683.073 450 683.353 449.755 683.423 449.51L686.118 440.62L686.258 449.51C686.258 449.79 686.503 450 686.783 450H690.913ZM707.696 450C707.941 450 708.186 449.79 708.186 449.51V445.345C708.186 445.065 707.941 444.855 707.696 444.855H699.611V440.34H705.806C706.086 440.34 706.296 440.13 706.296 439.85V435.685C706.296 435.405 706.086 435.195 705.806 435.195H699.611V430.715H707.696C707.941 430.715 708.186 430.505 708.186 430.225V426.06C708.186 425.78 707.941 425.57 707.696 425.57H694.956C694.676 425.57 694.466 425.78 694.466 426.06V449.51C694.466 449.79 694.676 450 694.956 450H707.696ZM725.749 447.655C726.064 447.34 726.134 446.99 726.134 446.745V438.45C726.134 438.135 726.134 437.96 725.749 437.54L723.789 435.58C723.474 435.265 723.369 435.195 722.879 435.195H716.334L715.844 434.705C715.774 434.635 715.704 434.565 715.704 434.46V431.66C715.704 431.555 715.739 431.485 715.844 431.38L716.404 430.82C716.474 430.75 716.544 430.715 716.649 430.715H720.989V432.465C720.989 432.745 721.199 432.955 721.479 432.955H725.609C725.889 432.955 726.134 432.745 726.134 432.465V428.86C726.134 428.51 725.994 428.16 725.749 427.915L723.789 425.955C723.474 425.64 723.229 425.57 722.879 425.57H713.814C713.534 425.57 713.289 425.57 712.904 425.955L710.944 427.915C710.699 428.16 710.559 428.475 710.559 428.825V437.085C710.559 437.505 710.734 437.785 710.944 437.995L712.904 439.955C713.184 440.235 713.429 440.34 713.814 440.34H720.114C720.184 440.34 720.219 440.375 720.289 440.445L720.814 440.935C720.954 441.04 720.989 441.145 720.989 441.285V443.945C720.989 444.05 720.954 444.12 720.884 444.19L720.289 444.75C720.219 444.82 720.184 444.855 720.114 444.855H715.704V443.28C715.704 443 715.494 442.79 715.214 442.79H711.084C710.804 442.79 710.559 443 710.559 443.28V446.675C710.559 446.99 710.699 447.41 710.944 447.655L712.904 449.615C713.184 449.895 713.429 450 713.814 450H722.879C723.124 450 723.544 449.86 723.789 449.615L725.749 447.655ZM732.93 450C733.175 450 733.35 449.79 733.42 449.51L741.12 426.025C741.19 425.745 740.875 425.535 740.63 425.535H736.465C736.185 425.535 736.045 425.745 735.975 426.025L728.275 449.51C728.205 449.79 728.485 450 728.765 450H732.93ZM758.004 447.655C758.389 447.27 758.389 446.99 758.389 446.745V428.825C758.389 428.58 758.319 428.23 758.004 427.915L756.044 425.955C755.729 425.64 755.414 425.57 755.134 425.57H744.004C743.724 425.57 743.514 425.78 743.514 426.06V449.51C743.514 449.79 743.724 450 744.004 450H755.134C755.484 450 755.764 449.895 756.044 449.615L758.004 447.655ZM752.649 444.855H748.659V430.715H752.299C752.369 430.715 752.474 430.715 752.544 430.82L753.139 431.415C753.244 431.52 753.244 431.59 753.244 431.66V444.12C753.244 444.19 753.209 444.26 753.139 444.365L752.649 444.855ZM778.774 450C779.159 450 779.369 449.755 779.299 449.51L772.369 426.095C772.264 425.745 772.124 425.57 771.879 425.57H767.714C767.469 425.57 767.329 425.745 767.224 426.06L760.294 449.51C760.224 449.755 760.364 450 760.819 450H764.809C765.089 450 765.369 449.755 765.439 449.51L766.279 446.675H773.314L774.154 449.51C774.224 449.755 774.504 450 774.784 450H778.774ZM771.914 441.95H767.679L769.814 434.775L771.914 441.95ZM787.727 450C787.972 450 788.217 449.79 788.217 449.51V438.765L794.727 426.235C794.902 425.92 794.692 425.57 794.272 425.57H789.757C789.477 425.57 789.232 425.815 789.127 426.06L785.627 432.99L782.127 426.06C782.022 425.815 781.777 425.57 781.497 425.57H776.982C776.562 425.57 776.352 425.92 776.527 426.235L783.037 438.765V449.51C783.037 449.79 783.282 450 783.527 450H787.727Z" fill="#553E17"/>
<path d="M651.475 483C651.755 483 651.965 482.79 651.965 482.51V473.375H658.23C658.475 473.375 658.65 473.095 658.65 472.885V468.72C658.65 468.44 658.44 468.23 658.16 468.23H651.965V463.715H660.155C660.435 463.715 660.54 463.4 660.54 463.225V459.06C660.54 458.78 660.295 458.57 660.05 458.57H647.31C647.03 458.57 646.82 458.78 646.82 459.06V482.51C646.82 482.79 647.03 483 647.31 483H651.475ZM677.9 480.655C678.18 480.375 678.25 479.955 678.25 479.745V461.825C678.25 461.37 678.075 461.09 677.9 460.915L675.905 458.955C675.485 458.535 675.38 458.57 674.995 458.57H665.965C665.685 458.57 665.37 458.64 665.055 458.955L663.095 460.915C662.85 461.16 662.71 461.545 662.71 461.825V479.745C662.71 480.095 662.815 480.375 663.095 480.655L665.055 482.615C665.37 482.93 665.615 483 665.965 483H675.1C675.38 483 675.625 482.895 675.905 482.615L677.9 480.655ZM672.51 477.855H668.45L667.96 477.365C667.89 477.26 667.855 477.19 667.855 477.12V464.66C667.855 464.59 667.855 464.485 667.96 464.38L668.555 463.82C668.66 463.75 668.695 463.715 668.8 463.715H672.195C672.265 463.715 672.335 463.715 672.44 463.82L673 464.38C673.105 464.485 673.105 464.59 673.105 464.66V477.12C673.105 477.19 673.105 477.26 673 477.365L672.51 477.855ZM697.397 483C697.747 483 697.852 482.755 697.747 482.51L694.177 473.69L696.277 471.625C696.557 471.345 696.627 471.17 696.627 470.715V461.895C696.627 461.615 696.697 461.335 696.277 460.915L694.282 458.92C694.037 458.675 693.687 458.57 693.372 458.57H682.242C681.997 458.57 681.752 458.78 681.752 459.06V482.51C681.752 482.755 681.997 483 682.242 483H686.407C686.687 483 686.897 482.755 686.897 482.51V473.97H688.507L691.937 482.51C692.042 482.755 692.287 483 692.567 483H697.397ZM690.817 468.755C690.712 468.86 690.642 468.86 690.572 468.86H686.897V463.715H690.397C690.572 463.715 690.712 463.715 690.852 463.855L691.377 464.38C691.482 464.485 691.482 464.555 691.482 464.73V467.915C691.482 468.02 691.447 468.125 691.377 468.195L690.817 468.755ZM728.53 483C728.915 483 729.125 482.755 729.055 482.51L722.125 459.095C722.02 458.745 721.88 458.57 721.635 458.57H717.47C717.225 458.57 717.085 458.745 716.98 459.06L710.05 482.51C709.98 482.755 710.12 483 710.575 483H714.565C714.845 483 715.125 482.755 715.195 482.51L716.035 479.675H723.07L723.91 482.51C723.98 482.755 724.26 483 724.54 483H728.53ZM721.67 474.95H717.435L719.57 467.775L721.67 474.95ZM752.214 483C752.459 483 752.704 482.79 752.704 482.51V471.765L759.214 459.235C759.389 458.92 759.179 458.57 758.759 458.57H754.244C753.964 458.57 753.719 458.815 753.614 459.06L750.114 465.99L746.614 459.06C746.509 458.815 746.264 458.57 745.984 458.57H741.469C741.049 458.57 740.839 458.92 741.014 459.235L747.524 471.765V482.51C747.524 482.79 747.769 483 748.014 483H752.214ZM774.415 483C774.66 483 774.905 482.79 774.905 482.51V478.345C774.905 478.065 774.66 477.855 774.415 477.855H766.33V473.34H772.525C772.805 473.34 773.015 473.13 773.015 472.85V468.685C773.015 468.405 772.805 468.195 772.525 468.195H766.33V463.715H774.415C774.66 463.715 774.905 463.505 774.905 463.225V459.06C774.905 458.78 774.66 458.57 774.415 458.57H761.675C761.395 458.57 761.185 458.78 761.185 459.06V482.51C761.185 482.79 761.395 483 761.675 483H774.415ZM794.462 483C794.847 483 795.057 482.755 794.987 482.51L788.057 459.095C787.952 458.745 787.812 458.57 787.567 458.57H783.402C783.157 458.57 783.017 458.745 782.912 459.06L775.982 482.51C775.912 482.755 776.052 483 776.507 483H780.497C780.777 483 781.057 482.755 781.127 482.51L781.967 479.675H789.002L789.842 482.51C789.912 482.755 790.192 483 790.472 483H794.462ZM787.602 474.95H783.367L785.502 467.775L787.602 474.95ZM812.685 483C813.035 483 813.14 482.755 813.035 482.51L809.465 473.69L811.565 471.625C811.845 471.345 811.915 471.17 811.915 470.715V461.895C811.915 461.615 811.985 461.335 811.565 460.915L809.57 458.92C809.325 458.675 808.975 458.57 808.66 458.57H797.53C797.285 458.57 797.04 458.78 797.04 459.06V482.51C797.04 482.755 797.285 483 797.53 483H801.695C801.975 483 802.185 482.755 802.185 482.51V473.97H803.795L807.225 482.51C807.33 482.755 807.575 483 807.855 483H812.685ZM806.105 468.755C806 468.86 805.93 468.86 805.86 468.86H802.185V463.715H805.685C805.86 463.715 806 463.715 806.14 463.855L806.665 464.38C806.77 464.485 806.77 464.555 806.77 464.73V467.915C806.77 468.02 806.735 468.125 806.665 468.195L806.105 468.755Z" fill="#AE5738"/>
<path d="M315.18 386C315.404 386 315.572 385.832 315.572 385.608V378.3H320.584C320.78 378.3 320.92 378.076 320.92 377.908V374.576C320.92 374.352 320.752 374.184 320.528 374.184H315.572V370.572H322.124C322.348 370.572 322.432 370.32 322.432 370.18V366.848C322.432 366.624 322.236 366.456 322.04 366.456H311.848C311.624 366.456 311.456 366.624 311.456 366.848V385.608C311.456 385.832 311.624 386 311.848 386H315.18ZM336.18 386C336.404 386 336.6 385.832 336.6 385.608V382.276C336.6 382.08 336.404 381.884 336.18 381.884H328.676V366.764C328.676 366.596 328.48 366.456 328.284 366.456H324.98C324.784 366.456 324.56 366.596 324.56 366.764V385.608C324.56 385.832 324.756 386 324.98 386H336.18ZM350.622 384.124C350.818 383.928 350.902 383.648 350.902 383.396V366.848C350.902 366.624 350.734 366.456 350.51 366.456H347.206C346.982 366.456 346.814 366.624 346.814 366.848V381.268C346.814 381.352 346.786 381.408 346.702 381.492L346.31 381.884H343.062L342.67 381.492C342.614 381.408 342.586 381.408 342.586 381.296V366.848C342.586 366.624 342.418 366.456 342.194 366.456H338.862C338.666 366.456 338.47 366.624 338.47 366.848V383.396C338.47 383.62 338.498 383.844 338.778 384.124L340.346 385.72C340.57 385.944 340.794 386 341.074 386H348.326C348.662 386 348.83 385.916 349.054 385.692L350.622 384.124ZM365.657 384.124C365.909 383.872 365.965 383.592 365.965 383.396V376.76C365.965 376.508 365.965 376.368 365.657 376.032L364.089 374.464C363.837 374.212 363.753 374.156 363.361 374.156H358.125L357.733 373.764C357.677 373.708 357.621 373.652 357.621 373.568V371.328C357.621 371.244 357.649 371.188 357.733 371.104L358.181 370.656C358.237 370.6 358.293 370.572 358.377 370.572H361.849V371.972C361.849 372.196 362.017 372.364 362.241 372.364H365.545C365.769 372.364 365.965 372.196 365.965 371.972V369.088C365.965 368.808 365.853 368.528 365.657 368.332L364.089 366.764C363.837 366.512 363.641 366.456 363.361 366.456H356.109C355.885 366.456 355.689 366.456 355.381 366.764L353.813 368.332C353.617 368.528 353.505 368.78 353.505 369.06V375.668C353.505 376.004 353.645 376.228 353.813 376.396L355.381 377.964C355.605 378.188 355.801 378.272 356.109 378.272H361.149C361.205 378.272 361.233 378.3 361.289 378.356L361.709 378.748C361.821 378.832 361.849 378.916 361.849 379.028V381.156C361.849 381.24 361.821 381.296 361.765 381.352L361.289 381.8C361.233 381.856 361.205 381.884 361.149 381.884H357.621V380.624C357.621 380.4 357.453 380.232 357.229 380.232H353.925C353.701 380.232 353.505 380.4 353.505 380.624V383.34C353.505 383.592 353.617 383.928 353.813 384.124L355.381 385.692C355.605 385.916 355.801 386 356.109 386H363.361C363.557 386 363.893 385.888 364.089 385.692L365.657 384.124ZM380.726 386C380.95 386 381.118 385.832 381.118 385.608V366.848C381.118 366.624 380.95 366.456 380.726 366.456H377.394C377.198 366.456 377.002 366.624 377.002 366.848V374.156H372.802V366.848C372.802 366.624 372.606 366.456 372.41 366.456H369.078C368.854 366.456 368.686 366.624 368.686 366.848V385.608C368.686 385.832 368.854 386 369.078 386H372.41C372.606 386 372.802 385.832 372.802 385.608V378.272H377.002V385.608C377.002 385.832 377.198 386 377.394 386H380.726ZM387.75 386C387.974 386 388.142 385.832 388.142 385.608V366.848C388.142 366.624 387.974 366.456 387.75 366.456H384.418C384.194 366.456 384.026 366.624 384.026 366.848V385.608C384.026 385.832 384.194 386 384.418 386H387.75ZM403.514 386C403.738 386 403.906 385.804 403.906 385.608V366.848C403.906 366.624 403.738 366.456 403.514 366.456H400.182C399.986 366.456 399.79 366.624 399.79 366.848V377.908L399.65 377.6L395.954 366.848C395.87 366.596 395.73 366.456 395.534 366.456H391.446C391.222 366.456 391.054 366.624 391.054 366.848V385.608C391.054 385.804 391.222 386 391.446 386H394.778C394.974 386 395.17 385.804 395.17 385.608V376.228L398.586 385.608C398.67 385.804 398.866 386 399.09 386H403.514ZM418.843 384.124C419.011 383.956 419.151 383.788 419.151 383.564V375.108C419.151 374.884 418.955 374.716 418.731 374.716H413.187C412.963 374.716 412.795 374.884 412.795 375.108V378.44C412.795 378.636 412.963 378.832 413.187 378.832H415.035V381.296C415.035 381.352 415.007 381.408 414.951 381.492L414.559 381.884H411.283L410.919 381.492C410.835 381.408 410.807 381.352 410.807 381.268V371.384C410.807 371.3 410.835 371.244 410.919 371.132L411.367 370.656C411.451 370.572 411.507 370.572 411.563 370.572H414.279C414.335 370.572 414.419 370.572 414.475 370.656L414.951 371.132C415.035 371.216 415.035 371.244 415.035 371.328V372.056C415.035 372.252 415.203 372.448 415.427 372.448H418.731C418.955 372.448 419.151 372.252 419.151 372.056V369.06C419.151 368.836 419.151 368.668 418.843 368.332L417.275 366.764C416.939 366.456 416.771 366.456 416.547 366.456H409.295C408.875 366.456 408.735 366.596 408.567 366.764L406.999 368.332C406.775 368.556 406.691 368.724 406.691 369.06V383.396C406.691 383.648 406.663 383.788 406.999 384.124L408.567 385.692C408.735 385.86 408.987 386 409.295 386H416.547C416.575 386 416.939 386.028 417.275 385.692L418.843 384.124ZM319.072 409C319.268 409 319.464 408.832 319.464 408.608V400.012L324.672 389.988C324.812 389.736 324.644 389.456 324.308 389.456H320.696C320.472 389.456 320.276 389.652 320.192 389.848L317.392 395.392L314.592 389.848C314.508 389.652 314.312 389.456 314.088 389.456H310.476C310.14 389.456 309.972 389.736 310.112 389.988L315.32 400.012V408.608C315.32 408.832 315.516 409 315.712 409H319.072ZM337.879 407.124C338.103 406.9 338.159 406.564 338.159 406.396V392.06C338.159 391.696 338.019 391.472 337.879 391.332L336.283 389.764C335.947 389.428 335.863 389.456 335.555 389.456H328.331C328.107 389.456 327.855 389.512 327.603 389.764L326.035 391.332C325.839 391.528 325.727 391.836 325.727 392.06V406.396C325.727 406.676 325.811 406.9 326.035 407.124L327.603 408.692C327.855 408.944 328.051 409 328.331 409H335.639C335.863 409 336.059 408.916 336.283 408.692L337.879 407.124ZM333.567 404.884H330.319L329.927 404.492C329.871 404.408 329.843 404.352 329.843 404.296V394.328C329.843 394.272 329.843 394.188 329.927 394.104L330.403 393.656C330.487 393.6 330.515 393.572 330.599 393.572H333.315C333.371 393.572 333.427 393.572 333.511 393.656L333.959 394.104C334.043 394.188 334.043 394.272 334.043 394.328V404.296C334.043 404.352 334.043 404.408 333.959 404.492L333.567 404.884ZM353.028 407.124C353.224 406.928 353.308 406.648 353.308 406.396V389.848C353.308 389.624 353.14 389.456 352.916 389.456H349.612C349.388 389.456 349.22 389.624 349.22 389.848V404.268C349.22 404.352 349.192 404.408 349.108 404.492L348.716 404.884H345.468L345.076 404.492C345.02 404.408 344.992 404.408 344.992 404.296V389.848C344.992 389.624 344.824 389.456 344.6 389.456H341.268C341.072 389.456 340.876 389.624 340.876 389.848V406.396C340.876 406.62 340.904 406.844 341.184 407.124L342.752 408.72C342.976 408.944 343.2 409 343.48 409H350.732C351.068 409 351.236 408.916 351.46 408.692L353.028 407.124ZM368.652 409C368.932 409 369.016 408.804 368.932 408.608L366.076 401.552L367.756 399.9C367.98 399.676 368.036 399.536 368.036 399.172V392.116C368.036 391.892 368.092 391.668 367.756 391.332L366.16 389.736C365.964 389.54 365.684 389.456 365.432 389.456H356.528C356.332 389.456 356.136 389.624 356.136 389.848V408.608C356.136 408.804 356.332 409 356.528 409H359.86C360.084 409 360.252 408.804 360.252 408.608V401.776H361.54L364.284 408.608C364.368 408.804 364.564 409 364.788 409H368.652ZM363.388 397.604C363.304 397.688 363.248 397.688 363.192 397.688H360.252V393.572H363.052C363.192 393.572 363.304 393.572 363.416 393.684L363.836 394.104C363.92 394.188 363.92 394.244 363.92 394.384V396.932C363.92 397.016 363.892 397.1 363.836 397.156L363.388 397.604ZM386.754 409C386.95 409 387.146 408.86 387.146 408.664V393.572H390.702C390.926 393.572 391.122 393.404 391.122 393.18V389.876C391.122 389.652 390.926 389.456 390.702 389.456H379.502C379.278 389.456 379.082 389.652 379.082 389.876V393.18C379.082 393.404 379.278 393.572 379.502 393.572H383.058V408.664C383.058 408.86 383.254 409 383.45 409H386.754ZM405.117 407.124C405.341 406.9 405.397 406.564 405.397 406.396V392.06C405.397 391.696 405.257 391.472 405.117 391.332L403.521 389.764C403.185 389.428 403.101 389.456 402.793 389.456H395.569C395.345 389.456 395.093 389.512 394.841 389.764L393.273 391.332C393.077 391.528 392.965 391.836 392.965 392.06V406.396C392.965 406.676 393.049 406.9 393.273 407.124L394.841 408.692C395.093 408.944 395.289 409 395.569 409H402.877C403.101 409 403.297 408.916 403.521 408.692L405.117 407.124ZM400.805 404.884H397.557L397.165 404.492C397.109 404.408 397.081 404.352 397.081 404.296V394.328C397.081 394.272 397.081 394.188 397.165 394.104L397.641 393.656C397.725 393.6 397.753 393.572 397.837 393.572H400.553C400.609 393.572 400.665 393.572 400.749 393.656L401.197 394.104C401.281 394.188 401.281 394.272 401.281 394.328V404.296C401.281 404.352 401.281 404.408 401.197 404.492L400.805 404.884ZM411.922 409C412.146 409 412.314 408.832 412.314 408.608V389.848C412.314 389.624 412.146 389.456 411.922 389.456H408.59C408.366 389.456 408.198 389.624 408.198 389.848V408.608C408.198 408.832 408.366 409 408.59 409H411.922ZM426.846 409C427.07 409 427.266 408.832 427.266 408.608V405.276C427.266 405.08 427.07 404.884 426.846 404.884H419.342V389.764C419.342 389.596 419.146 389.456 418.95 389.456H415.646C415.45 389.456 415.226 389.596 415.226 389.764V408.608C415.226 408.832 415.422 409 415.646 409H426.846ZM439.81 409C440.006 409 440.202 408.832 440.202 408.608V405.276C440.202 405.052 440.006 404.884 439.81 404.884H433.342V401.272H438.298C438.522 401.272 438.69 401.104 438.69 400.88V397.548C438.69 397.324 438.522 397.156 438.298 397.156H433.342V393.572H439.81C440.006 393.572 440.202 393.404 440.202 393.18V389.848C440.202 389.624 440.006 389.456 439.81 389.456H429.618C429.394 389.456 429.226 389.624 429.226 389.848V408.608C429.226 408.832 429.394 409 429.618 409H439.81ZM449.043 409C449.239 409 449.435 408.86 449.435 408.664V393.572H452.991C453.215 393.572 453.411 393.404 453.411 393.18V389.876C453.411 389.652 453.215 389.456 452.991 389.456H441.791C441.567 389.456 441.371 389.652 441.371 389.876V393.18C441.371 393.404 441.567 393.572 441.791 393.572H445.347V408.664C445.347 408.86 445.543 409 445.739 409H449.043Z" fill="#553E17"/>
<path d="M474.87 210.655C475.15 210.375 475.22 209.955 475.22 209.745V191.825C475.22 191.37 475.045 191.09 474.87 190.915L472.875 188.955C472.455 188.535 472.35 188.57 471.965 188.57H462.935C462.655 188.57 462.34 188.64 462.025 188.955L460.065 190.915C459.82 191.16 459.68 191.545 459.68 191.825V209.745C459.68 210.095 459.785 210.375 460.065 210.655L462.025 212.615C462.34 212.93 462.585 213 462.935 213H472.07C472.35 213 472.595 212.895 472.875 212.615L474.87 210.655ZM469.48 207.855H465.42L464.93 207.365C464.86 207.26 464.825 207.19 464.825 207.12V194.66C464.825 194.59 464.825 194.485 464.93 194.38L465.525 193.82C465.63 193.75 465.665 193.715 465.77 193.715H469.165C469.235 193.715 469.305 193.715 469.41 193.82L469.97 194.38C470.075 194.485 470.075 194.59 470.075 194.66V207.12C470.075 207.19 470.075 207.26 469.97 207.365L469.48 207.855ZM483.376 213C483.656 213 483.866 212.79 483.866 212.51V203.375H490.131C490.376 203.375 490.551 203.095 490.551 202.885V198.72C490.551 198.44 490.341 198.23 490.061 198.23H483.866V193.715H492.056C492.336 193.715 492.441 193.4 492.441 193.225V189.06C492.441 188.78 492.196 188.57 491.951 188.57H479.211C478.931 188.57 478.721 188.78 478.721 189.06V212.51C478.721 212.79 478.931 213 479.211 213H483.376ZM523.515 213C523.9 213 524.04 212.72 524.04 212.51L525.93 189.06C525.965 188.815 525.685 188.57 525.44 188.57H521.275C520.995 188.57 520.785 188.815 520.785 189.06L519.91 200.995L517.95 195.465C517.845 195.185 517.565 194.975 517.285 194.975H514.485C514.205 194.975 513.96 195.22 513.855 195.465L511.86 200.995L511.02 189.06C511.02 188.815 510.775 188.57 510.495 188.57H506.365C506.085 188.57 505.84 188.815 505.875 189.06L507.73 212.475C507.73 212.685 507.94 213 508.185 213H512.56C512.84 213 512.98 212.825 513.085 212.51L515.815 203.69L516.025 201.94L516.27 203.69L518.72 212.51C518.79 212.79 518.965 213 519.21 213H523.515ZM544.777 213C545.162 213 545.372 212.755 545.302 212.51L538.372 189.095C538.267 188.745 538.127 188.57 537.882 188.57H533.717C533.472 188.57 533.332 188.745 533.227 189.06L526.297 212.51C526.227 212.755 526.367 213 526.822 213H530.812C531.092 213 531.372 212.755 531.442 212.51L532.282 209.675H539.317L540.157 212.51C540.227 212.755 540.507 213 540.787 213H544.777ZM537.917 204.95H533.682L535.817 197.775L537.917 204.95ZM553.293 213C553.538 213 553.783 212.825 553.783 212.58V193.715H558.228C558.508 193.715 558.753 193.505 558.753 193.225V189.095C558.753 188.815 558.508 188.57 558.228 188.57H544.228C543.948 188.57 543.703 188.815 543.703 189.095V193.225C543.703 193.505 543.948 193.715 544.228 193.715H548.673V212.58C548.673 212.825 548.918 213 549.163 213H553.293ZM574.427 213C574.672 213 574.917 212.79 574.917 212.51V208.345C574.917 208.065 574.672 207.855 574.427 207.855H566.342V203.34H572.537C572.817 203.34 573.027 203.13 573.027 202.85V198.685C573.027 198.405 572.817 198.195 572.537 198.195H566.342V193.715H574.427C574.672 193.715 574.917 193.505 574.917 193.225V189.06C574.917 188.78 574.672 188.57 574.427 188.57H561.687C561.407 188.57 561.197 188.78 561.197 189.06V212.51C561.197 212.79 561.407 213 561.687 213H574.427ZM593.214 213C593.564 213 593.669 212.755 593.564 212.51L589.994 203.69L592.094 201.625C592.374 201.345 592.444 201.17 592.444 200.715V191.895C592.444 191.615 592.514 191.335 592.094 190.915L590.099 188.92C589.854 188.675 589.504 188.57 589.189 188.57H578.059C577.814 188.57 577.569 188.78 577.569 189.06V212.51C577.569 212.755 577.814 213 578.059 213H582.224C582.504 213 582.714 212.755 582.714 212.51V203.97H584.324L587.754 212.51C587.859 212.755 588.104 213 588.384 213H593.214ZM586.634 198.755C586.529 198.86 586.459 198.86 586.389 198.86H582.714V193.715H586.214C586.389 193.715 586.529 193.715 586.669 193.855L587.194 194.38C587.299 194.485 587.299 194.555 587.299 194.73V197.915C587.299 198.02 587.264 198.125 587.194 198.195L586.634 198.755Z" fill="#AE5738"/>
<path d="M66.924 263C67.232 263 67.344 262.776 67.344 262.608L68.856 243.848C68.884 243.652 68.66 243.456 68.464 243.456H65.132C64.908 243.456 64.74 243.652 64.74 243.848L64.04 253.396L62.472 248.972C62.388 248.748 62.164 248.58 61.94 248.58H59.7C59.476 248.58 59.28 248.776 59.196 248.972L57.6 253.396L56.928 243.848C56.928 243.652 56.732 243.456 56.508 243.456H53.204C52.98 243.456 52.784 243.652 52.812 243.848L54.296 262.58C54.296 262.748 54.464 263 54.66 263H58.16C58.384 263 58.496 262.86 58.58 262.608L60.764 255.552L60.932 254.152L61.128 255.552L63.088 262.608C63.144 262.832 63.284 263 63.48 263H66.924ZM83.1601 263C83.3841 263 83.5521 262.832 83.5521 262.608V243.848C83.5521 243.624 83.3841 243.456 83.1601 243.456H79.8281C79.6321 243.456 79.4361 243.624 79.4361 243.848V251.156H75.2361V243.848C75.2361 243.624 75.0401 243.456 74.8441 243.456H71.5121C71.2881 243.456 71.1201 243.624 71.1201 243.848V262.608C71.1201 262.832 71.2881 263 71.5121 263H74.8441C75.0401 263 75.2361 262.832 75.2361 262.608V255.272H79.4361V262.608C79.4361 262.832 79.6321 263 79.8281 263H83.1601ZM90.1839 263C90.4079 263 90.5759 262.832 90.5759 262.608V243.848C90.5759 243.624 90.4079 243.456 90.1839 243.456H86.8519C86.6279 243.456 86.4599 243.624 86.4599 243.848V262.608C86.4599 262.832 86.6279 263 86.8519 263H90.1839ZM105.471 261.124C105.751 260.844 105.779 260.76 105.779 260.62V257.456C105.779 257.26 105.583 257.064 105.387 257.064H102.055C101.831 257.064 101.663 257.26 101.663 257.456V258.296C101.663 258.352 101.635 258.436 101.579 258.492L101.187 258.884H97.9393L97.5473 258.492C97.4633 258.436 97.4353 258.352 97.4353 258.268V248.384C97.4353 248.272 97.4633 248.244 97.5473 248.132L97.9953 247.656C98.0513 247.6 98.1353 247.572 98.1913 247.572H100.907C100.963 247.572 101.047 247.6 101.103 247.656L101.579 248.132C101.635 248.188 101.663 248.244 101.663 248.328V249.056C101.663 249.252 101.831 249.448 102.055 249.448H105.387C105.583 249.448 105.779 249.252 105.779 249.056V246.06C105.779 245.78 105.723 245.584 105.471 245.332L103.903 243.764C103.651 243.512 103.427 243.456 103.175 243.456H95.9233C95.6993 243.456 95.5033 243.456 95.1953 243.764L93.6273 245.332C93.3473 245.612 93.3473 245.976 93.3473 246.06V260.396C93.3473 260.592 93.3473 260.844 93.6273 261.124L95.1953 262.692C95.4473 262.944 95.7272 263 95.9233 263H103.147C103.371 263 103.651 262.944 103.903 262.692L105.471 261.124ZM120.266 263C120.49 263 120.658 262.832 120.658 262.608V243.848C120.658 243.624 120.49 243.456 120.266 243.456H116.934C116.738 243.456 116.542 243.624 116.542 243.848V251.156H112.342V243.848C112.342 243.624 112.146 243.456 111.95 243.456H108.618C108.394 243.456 108.226 243.624 108.226 243.848V262.608C108.226 262.832 108.394 263 108.618 263H111.95C112.146 263 112.342 262.832 112.342 262.608V255.272H116.542V262.608C116.542 262.832 116.738 263 116.934 263H120.266ZM136.559 263C136.783 263 136.951 262.832 136.951 262.608V243.848C136.951 243.624 136.783 243.456 136.559 243.456H133.227C133.003 243.456 132.835 243.624 132.835 243.848V262.608C132.835 262.832 133.003 263 133.227 263H136.559ZM151.79 261.124C152.042 260.872 152.098 260.592 152.098 260.396V253.76C152.098 253.508 152.098 253.368 151.79 253.032L150.222 251.464C149.97 251.212 149.886 251.156 149.494 251.156H144.258L143.866 250.764C143.81 250.708 143.754 250.652 143.754 250.568V248.328C143.754 248.244 143.782 248.188 143.866 248.104L144.314 247.656C144.37 247.6 144.426 247.572 144.51 247.572H147.982V248.972C147.982 249.196 148.15 249.364 148.374 249.364H151.678C151.902 249.364 152.098 249.196 152.098 248.972V246.088C152.098 245.808 151.986 245.528 151.79 245.332L150.222 243.764C149.97 243.512 149.774 243.456 149.494 243.456H142.242C142.018 243.456 141.822 243.456 141.514 243.764L139.946 245.332C139.75 245.528 139.638 245.78 139.638 246.06V252.668C139.638 253.004 139.778 253.228 139.946 253.396L141.514 254.964C141.738 255.188 141.934 255.272 142.242 255.272H147.282C147.338 255.272 147.366 255.3 147.422 255.356L147.842 255.748C147.954 255.832 147.982 255.916 147.982 256.028V258.156C147.982 258.24 147.954 258.296 147.898 258.352L147.422 258.8C147.366 258.856 147.338 258.884 147.282 258.884H143.754V257.624C143.754 257.4 143.586 257.232 143.362 257.232H140.058C139.834 257.232 139.638 257.4 139.638 257.624V260.34C139.638 260.592 139.75 260.928 139.946 261.124L141.514 262.692C141.738 262.916 141.934 263 142.242 263H149.494C149.69 263 150.026 262.888 150.222 262.692L151.79 261.124Z" fill="#553E17"/>
<path d="M174.673 263C174.869 263 175.065 262.832 175.065 262.608V259.276C175.065 259.052 174.869 258.884 174.673 258.884H168.205V255.272H173.161C173.385 255.272 173.553 255.104 173.553 254.88V251.548C173.553 251.324 173.385 251.156 173.161 251.156H168.205V247.572H174.673C174.869 247.572 175.065 247.404 175.065 247.18V243.848C175.065 243.624 174.869 243.456 174.673 243.456H164.481C164.257 243.456 164.089 243.624 164.089 243.848V262.608C164.089 262.832 164.257 263 164.481 263H174.673ZM189.338 264.82C189.59 264.82 189.814 264.596 189.702 264.372L188.582 261.712L189.17 261.124C189.394 260.9 189.45 260.592 189.45 260.396V246.06C189.45 246.004 189.478 245.64 189.17 245.332L187.574 243.764C187.322 243.512 187.154 243.456 186.846 243.456H179.622C179.314 243.456 179.202 243.456 178.894 243.764L177.326 245.332C177.074 245.584 177.018 245.78 177.018 246.06V260.396C177.018 260.676 177.102 260.9 177.326 261.124L178.894 262.692C179.118 262.916 179.286 263 179.622 263H184.466L185.082 264.428C185.166 264.624 185.362 264.82 185.586 264.82H189.338ZM184.858 258.884H181.61L181.218 258.492C181.134 258.38 181.134 258.352 181.134 258.268V248.3C181.134 248.244 181.134 248.188 181.218 248.104L181.694 247.656C181.75 247.6 181.806 247.572 181.89 247.572H184.606C184.662 247.572 184.718 247.572 184.802 247.656L185.25 248.104C185.306 248.16 185.334 248.244 185.334 248.328V258.268C185.334 258.352 185.334 258.408 185.25 258.492L184.858 258.884ZM204.157 261.124C204.353 260.928 204.437 260.648 204.437 260.396V243.848C204.437 243.624 204.269 243.456 204.045 243.456H200.741C200.517 243.456 200.349 243.624 200.349 243.848V258.268C200.349 258.352 200.321 258.408 200.237 258.492L199.845 258.884H196.597L196.205 258.492C196.149 258.408 196.121 258.408 196.121 258.296V243.848C196.121 243.624 195.953 243.456 195.729 243.456H192.397C192.201 243.456 192.005 243.624 192.005 243.848V260.396C192.005 260.62 192.033 260.844 192.313 261.124L193.881 262.72C194.105 262.944 194.329 263 194.609 263H201.861C202.197 263 202.365 262.916 202.589 262.692L204.157 261.124ZM210.989 263C211.213 263 211.381 262.832 211.381 262.608V243.848C211.381 243.624 211.213 243.456 210.989 243.456H207.657C207.433 243.456 207.265 243.624 207.265 243.848V262.608C207.265 262.832 207.433 263 207.657 263H210.989ZM222.132 263C222.356 263 222.608 262.804 222.664 262.58L227.536 243.96C227.592 243.764 227.424 243.456 227.2 243.456H223.7C223.476 243.456 223.336 243.596 223.28 243.848L220.312 254.6L220.032 256.28L219.808 254.6L217.288 243.848C217.232 243.596 217.092 243.456 216.868 243.456H213.368C213.144 243.456 212.976 243.736 213.032 243.96L217.904 262.58C217.96 262.804 218.184 263 218.408 263H222.132ZM240.777 263C241.085 263 241.253 262.804 241.197 262.608L235.653 243.876C235.569 243.596 235.457 243.456 235.261 243.456H231.929C231.733 243.456 231.621 243.596 231.537 243.848L225.993 262.608C225.937 262.804 226.049 263 226.413 263H229.605C229.829 263 230.053 262.804 230.109 262.608L230.781 260.34H236.409L237.081 262.608C237.137 262.804 237.361 263 237.585 263H240.777ZM235.289 256.56H231.901L233.609 250.82L235.289 256.56ZM254.459 263C254.683 263 254.879 262.832 254.879 262.608V259.276C254.879 259.08 254.683 258.884 254.459 258.884H246.955V243.764C246.955 243.596 246.759 243.456 246.563 243.456H243.259C243.063 243.456 242.839 243.596 242.839 243.764V262.608C242.839 262.832 243.035 263 243.259 263H254.459ZM267.423 263C267.619 263 267.815 262.832 267.815 262.608V259.276C267.815 259.052 267.619 258.884 267.423 258.884H260.955V255.272H265.911C266.135 255.272 266.303 255.104 266.303 254.88V251.548C266.303 251.324 266.135 251.156 265.911 251.156H260.955V247.572H267.423C267.619 247.572 267.815 247.404 267.815 247.18V243.848C267.815 243.624 267.619 243.456 267.423 243.456H257.231C257.007 243.456 256.839 243.624 256.839 243.848V262.608C256.839 262.832 257.007 263 257.231 263H267.423ZM282.396 263C282.62 263 282.788 262.804 282.788 262.608V243.848C282.788 243.624 282.62 243.456 282.396 243.456H279.064C278.868 243.456 278.672 243.624 278.672 243.848V254.908L278.532 254.6L274.836 243.848C274.752 243.596 274.612 243.456 274.416 243.456H270.328C270.104 243.456 269.936 243.624 269.936 243.848V262.608C269.936 262.804 270.104 263 270.328 263H273.66C273.856 263 274.052 262.804 274.052 262.608V253.228L277.468 262.608C277.552 262.804 277.748 263 277.972 263H282.396ZM292.434 263C292.63 263 292.826 262.86 292.826 262.664V247.572H296.382C296.606 247.572 296.802 247.404 296.802 247.18V243.876C296.802 243.652 296.606 243.456 296.382 243.456H285.182C284.958 243.456 284.762 243.652 284.762 243.876V247.18C284.762 247.404 284.958 247.572 285.182 247.572H288.738V262.664C288.738 262.86 288.934 263 289.13 263H292.434ZM314.746 263C314.942 263 315.138 262.86 315.138 262.664V247.572H318.694C318.918 247.572 319.114 247.404 319.114 247.18V243.876C319.114 243.652 318.918 243.456 318.694 243.456H307.494C307.27 243.456 307.074 243.652 307.074 243.876V247.18C307.074 247.404 307.27 247.572 307.494 247.572H311.05V262.664C311.05 262.86 311.246 263 311.442 263H314.746ZM333.109 261.124C333.333 260.9 333.389 260.564 333.389 260.396V246.06C333.389 245.696 333.249 245.472 333.109 245.332L331.513 243.764C331.177 243.428 331.093 243.456 330.785 243.456H323.561C323.337 243.456 323.085 243.512 322.833 243.764L321.265 245.332C321.069 245.528 320.957 245.836 320.957 246.06V260.396C320.957 260.676 321.041 260.9 321.265 261.124L322.833 262.692C323.085 262.944 323.281 263 323.561 263H330.869C331.093 263 331.289 262.916 331.513 262.692L333.109 261.124ZM328.797 258.884H325.549L325.157 258.492C325.101 258.408 325.073 258.352 325.073 258.296V248.328C325.073 248.272 325.073 248.188 325.157 248.104L325.633 247.656C325.717 247.6 325.745 247.572 325.829 247.572H328.545C328.601 247.572 328.657 247.572 328.741 247.656L329.189 248.104C329.273 248.188 329.273 248.272 329.273 248.328V258.296C329.273 258.352 329.273 258.408 329.189 258.492L328.797 258.884Z" fill="#AE5738"/>
<path d="M113.688 214C114.808 214 115.648 213.16 115.648 212.04V195.52C115.648 194.4 114.808 193.42 113.688 193.42H74.0677V181.94C74.0677 181.66 74.0677 181.38 74.4877 180.96L76.8677 178.58C77.1477 178.3 77.2877 178.16 77.5677 178.16H102.768C104.308 178.16 105.008 178.02 106.268 176.76L114.248 168.92C115.928 167.24 115.648 166.4 115.648 165.28V129.16C115.648 129.16 115.928 127.2 114.248 125.52L106.408 117.68C105.428 116.7 104.168 116.28 102.768 116.28H66.5077C65.2477 116.28 63.8477 116.7 62.8677 117.68L55.0277 125.52C53.9077 126.64 53.4877 127.76 53.4877 129.16V143.86C53.4877 144.98 54.3277 145.82 55.4477 145.82H72.1077C73.2277 145.82 74.0677 144.98 74.0677 143.86V136.72H91.4277C91.8477 136.72 91.9877 136.86 92.4077 137.28L94.6477 139.52C94.7877 139.66 95.0677 140.08 95.0677 140.64V154.64C95.0677 155.06 95.0677 155.2 94.6477 155.76L92.6877 157.72H66.6477C66.6477 157.72 64.5477 157.44 62.8677 159.12L55.0277 166.96C53.3477 168.64 53.4877 170.6 53.4877 170.6V212.04C53.4877 213.16 54.3277 214 55.4477 214H113.688ZM189.567 214C190.687 214 191.527 213.16 191.527 212.04V195.52C191.527 194.4 190.687 193.42 189.567 193.42H149.947V181.94C149.947 181.66 149.947 181.38 150.367 180.96L152.747 178.58C153.027 178.3 153.167 178.16 153.447 178.16H178.647C180.187 178.16 180.887 178.02 182.147 176.76L190.127 168.92C191.807 167.24 191.527 166.4 191.527 165.28V129.16C191.527 129.16 191.807 127.2 190.127 125.52L182.287 117.68C181.307 116.7 180.047 116.28 178.647 116.28H142.387C141.127 116.28 139.727 116.7 138.747 117.68L130.907 125.52C129.787 126.64 129.367 127.76 129.367 129.16V143.86C129.367 144.98 130.207 145.82 131.327 145.82H147.987C149.107 145.82 149.947 144.98 149.947 143.86V136.72H167.307C167.727 136.72 167.867 136.86 168.287 137.28L170.527 139.52C170.667 139.66 170.947 140.08 170.947 140.64V154.64C170.947 155.06 170.947 155.2 170.527 155.76L168.567 157.72H142.527C142.527 157.72 140.427 157.44 138.747 159.12L130.907 166.96C129.227 168.64 129.367 170.6 129.367 170.6V212.04C129.367 213.16 130.207 214 131.327 214H189.567ZM206.085 230.1H220.505L227.365 213.3V193.56H201.885V214H210.565L206.085 230.1ZM260.591 214C261.711 214 262.691 213.16 262.691 212.04V118.24C262.691 117.26 261.571 116.28 260.591 116.28H241.691C240.851 116.28 240.291 116.84 239.731 118.1L233.151 134.2C232.451 135.88 233.291 136.86 234.271 136.86H242.111V212.04C242.111 213.16 242.951 214 244.071 214H260.591ZM337.22 204.62C338.2 203.64 338.76 202.52 338.76 201.12V129.3C338.76 128.04 338.2 126.64 337.22 125.66L329.38 117.82C327.7 116.28 326.86 116.28 325.74 116.28H289.48C288.22 116.28 286.68 116.98 285.84 117.82L278 125.66C276.88 126.78 276.46 128.04 276.46 129.3V200.84C276.46 202.52 276.88 203.64 278 204.76L285.84 212.6C287.1 213.86 288.5 214 289.06 214H325.74C327.14 214 328.12 213.86 329.38 212.6L337.22 204.62ZM315.8 193.42H299.42L297.6 191.46C297.18 190.9 297.04 190.62 297.04 190.06V140.92C297.04 140.22 297.18 140.22 297.6 139.66L299.84 137.28C300.12 136.86 300.54 136.86 300.82 136.86H314.4C314.68 136.86 314.96 137 315.38 137.28L317.76 139.66C318.18 140.08 318.18 140.36 318.18 140.64V190.34C318.18 190.9 318.04 191.18 317.76 191.46L315.8 193.42ZM412.552 204.62C413.532 203.64 414.092 202.52 414.092 201.12V129.3C414.092 128.04 413.532 126.64 412.552 125.66L404.712 117.82C403.032 116.28 402.192 116.28 401.072 116.28H364.812C363.552 116.28 362.012 116.98 361.172 117.82L353.332 125.66C352.212 126.78 351.792 128.04 351.792 129.3V200.84C351.792 202.52 352.212 203.64 353.332 204.76L361.172 212.6C362.432 213.86 363.832 214 364.392 214H401.072C402.472 214 403.452 213.86 404.712 212.6L412.552 204.62ZM391.132 193.42H374.752L372.932 191.46C372.512 190.9 372.372 190.62 372.372 190.06V140.92C372.372 140.22 372.512 140.22 372.932 139.66L375.172 137.28C375.452 136.86 375.872 136.86 376.152 136.86H389.732C390.012 136.86 390.292 137 390.712 137.28L393.092 139.66C393.512 140.08 393.512 140.36 393.512 140.64V190.34C393.512 190.9 393.372 191.18 393.092 191.46L391.132 193.42Z" fill="#AE5738"/>
<path d="M104 287.077C155.439 473.693 320.385 487.813 453.651 448.882" stroke="black" stroke-width="2" stroke-dasharray="12 12"/>
<path d="M542.54 468.76C544.08 467.22 544.08 466.1 544.08 465.12V438.38C544.08 437.54 543.38 436.84 542.54 435.86L537.08 430.26L542.54 424.66C543.94 423.26 544.08 422.14 544.08 421.02V393.16C544.08 392.04 544.08 391.2 542.54 389.52L534.7 381.68C533.44 380.42 532.18 380.28 531.06 380.28H495.92C494.66 380.28 493.26 380.7 492.28 381.68L484.44 389.52C482.76 391.2 482.9 392.6 482.9 393.16V407.86C482.9 408.98 483.88 409.82 484.86 409.82H501.52C502.64 409.82 503.48 408.98 503.48 407.86V400.72H519.72C520 400.72 520.42 401 520.7 401.28L523.08 403.52C523.36 403.8 523.5 404.22 523.5 404.64V415.98C523.5 416.4 523.5 416.54 523.08 416.96L521.12 418.92H505.16V439.36H519.72C520.14 439.36 520.42 439.64 520.7 439.92L522.94 442.02C523.5 442.44 523.5 443 523.5 443.28V454.62C523.5 455.04 523.5 455.32 523.08 455.6L521.12 457.42H503.48V450.42C503.48 449.3 502.64 448.46 501.52 448.46H484.86C483.88 448.46 482.9 449.3 482.9 450.42V465.12C482.9 466.24 483.04 467.36 484.44 468.76L492.28 476.6C493.26 477.58 493.96 478 495.5 478H531.34C532.6 478 533.44 477.86 534.7 476.6L542.54 468.76ZM616.264 468.76C617.104 467.92 617.664 466.66 617.664 465.12V438.38C617.664 437.68 617.104 436.7 616.264 435.86L610.664 430.26L616.264 424.66C617.384 423.54 617.664 422.56 617.664 421.02V393.02C617.664 392.6 617.664 390.92 616.264 389.52L608.424 381.68C606.604 380 605.204 380.28 603.804 380.28H569.644C568.104 380.28 567.264 380.42 566.004 381.68L558.024 389.52C557.184 390.36 556.624 391.34 556.624 393.02V421.02C556.624 422.56 556.624 423.26 558.024 424.66L563.624 430.26L558.024 435.86C557.184 436.7 556.624 437.68 556.624 438.38V465.12C556.624 466.38 556.904 467.64 558.024 468.76L566.004 476.6C566.984 477.58 567.824 478 568.524 478H605.624C606.324 478 607.444 477.58 608.424 476.6L616.264 468.76ZM594.704 418.92H579.584L577.624 416.96C577.204 416.54 577.204 416.4 577.204 415.98V404.5C577.204 404.22 577.344 403.8 577.624 403.52L579.864 401.28C580.284 400.86 580.564 400.72 580.844 400.72H593.444C593.724 400.72 594.004 400.86 594.424 401.28L596.664 403.52C597.084 403.8 597.084 404.22 597.084 404.5V415.98C597.084 416.4 597.084 416.54 596.664 416.96L594.704 418.92ZM594.704 457.42H579.584L577.624 455.6C577.204 455.18 577.204 455.04 577.204 454.62V443.28C577.204 442.72 577.344 442.44 577.624 442.16L579.864 439.92C580.284 439.5 580.564 439.36 580.844 439.36H593.304C593.724 439.36 594.004 439.5 594.424 439.92L596.664 442.16C596.944 442.44 597.084 442.72 597.084 443.28V454.62C597.084 455.04 597.084 455.18 596.664 455.6L594.704 457.42Z" fill="#AE5738"/>
</svg>
